P2
24 7
15
15 15 15 15 15 15 15 15 15 15 15 15 15 15 15 15 15 15 15 15 15 15 15 15
15 14 14 14 14 15 15 8 8 8 8 15 15 4 4 4 4 15 15 15 15 15 15 15
15 14 15 15 14 15 15 8 15 15 15 15 15 15 4 4 15 15 15 15 15 15 15 15
15 14 15 15 14 15 15 8 8 8 8 15 15 15 4 4 15 15 15 15 15 15 15 15
15 14 15 15 14 15 15 8 15 15 8 15 15 15 4 4 15 15 15 15 15 15 15 15
15 14 14 14 14 15 15 8 8 8 8 15 15 4 4 4 4 15 15 15 15 15 15 15
15 15 15 15 15 15 15 15 15 15 15 15 15 15 15 15 15 15 15 15 15 15 15 15
