P2
7 24
15
15 15 15 15 15 15 15
15 0 0 0 15 15 15
15 0 15 0 15 15 15
15 0 15 0 15 15 15
15 0 0 0 0 0 15
15 15 15 15 15 15 15
15 15 15 15 15 15 15
15 4 15 15 15 4 15
15 4 15 4 15 4 15
15 4 15 4 15 4 15
15 4 4 4 4 4 15
15 15 15 15 15 15 15
15 15 15 15 15 15 15
15 8 15 15 15 8 15
15 8 15 8 15 8 15
15 8 15 8 15 8 15
15 8 8 8 8 8 15
15 15 15 15 15 15 15
15 15 15 15 15 15 15
15 12 15 15 15 15 15
15 12 15 12 15 15 15
15 12 15 12 15 15 15
15 12 12 12 12 12 15
15 15 15 15 15 15 15
